<svg width="10" height="10" viewBox="0 0 10 10" fill="none" xmlns="http://www.w3.org/2000/svg">
<path d="M5.00001 5.70251L1.61801 9.08468C1.52567 9.1769 1.40962 9.22412 1.26984 9.22634C1.13017 9.22845 1.01201 9.18123 0.915341 9.08468C0.818786 8.98801 0.770508 8.8709 0.770508 8.73334C0.770508 8.59579 0.818786 8.47868 0.915341 8.38201L4.29751 5.00001L0.915341 1.61801C0.823119 1.52568 0.775897 1.40962 0.773675 1.26984C0.771563 1.13017 0.818786 1.01201 0.915341 0.915341C1.01201 0.818786 1.12912 0.770508 1.26667 0.770508C1.40423 0.770508 1.52134 0.818786 1.61801 0.915341L5.00001 4.29751L8.38201 0.915341C8.47434 0.823119 8.5904 0.775897 8.73018 0.773675C8.86984 0.771563 8.98801 0.818786 9.08468 0.915341C9.18123 1.01201 9.22951 1.12912 9.22951 1.26667C9.22951 1.40423 9.18123 1.52134 9.08468 1.61801L5.70251 5.00001L9.08468 8.38201C9.1769 8.47434 9.22412 8.5904 9.22634 8.73018C9.22845 8.86984 9.18123 8.98801 9.08468 9.08468C8.98801 9.18123 8.8709 9.22951 8.73334 9.22951C8.59579 9.22951 8.47867 9.18123 8.38201 9.08468L5.00001 5.70251Z" fill="#D4D4D4"/>
</svg>
