<svg width="25" height="24" viewBox="0 0 25 24" fill="none" xmlns="http://www.w3.org/2000/svg">
<path d="M6.80775 21.5C6.30258 21.5 5.875 21.325 5.525 20.975C5.175 20.625 5 20.1974 5 19.6923V4.30775C5 3.80258 5.175 3.375 5.525 3.025C5.875 2.675 6.30258 2.5 6.80775 2.5H14.002C14.243 2.5 14.4748 2.54683 14.6973 2.6405C14.9196 2.734 15.1128 2.86283 15.277 3.027L19.473 7.223C19.6372 7.38717 19.766 7.58042 19.8595 7.80275C19.9532 8.02525 20 8.257 20 8.498V19.6923C20 20.1974 19.825 20.625 19.475 20.975C19.125 21.325 18.6974 21.5 18.1923 21.5H6.80775ZM14 7.596C14 7.85383 14.0862 8.06892 14.2587 8.24125C14.4311 8.41375 14.6462 8.5 14.904 8.5H18.5L14 4V7.596ZM11.4345 15.2788L9.84225 13.6865C9.76792 13.6122 9.68683 13.5564 9.599 13.5192C9.51117 13.4821 9.42083 13.4635 9.328 13.4635C9.235 13.4635 9.14042 13.4821 9.04425 13.5192C8.94808 13.5564 8.86283 13.6122 8.7885 13.6865C8.63333 13.8417 8.55575 14.0199 8.55575 14.2213C8.55575 14.4224 8.63333 14.6006 8.7885 14.7558L10.8173 16.8C10.9109 16.8935 11.0097 16.9595 11.1135 16.998C11.2173 17.0365 11.3295 17.0557 11.45 17.0557C11.5705 17.0557 11.6827 17.0365 11.7865 16.998C11.8903 16.9595 11.9891 16.8935 12.0827 16.8L16.2115 12.671C16.3602 12.5223 16.4362 12.3433 16.4395 12.1337C16.4427 11.9241 16.3667 11.7417 16.2115 11.5865C16.0563 11.4313 15.8756 11.3538 15.6693 11.3538C15.4629 11.3538 15.2822 11.4313 15.127 11.5865L11.4345 15.2788Z" fill="#707071"/>
</svg>
