<svg width="64" height="21" viewBox="0 0 64 21" fill="none" xmlns="http://www.w3.org/2000/svg">
<path d="M0.532031 20.616V0.311999H9.26803C14.476 0.311999 17.644 4.344 17.644 10.464C17.644 16.584 14.476 20.616 9.26803 20.616H0.532031ZM0.964031 10.344C5.11603 10.344 9.05203 14.808 9.05203 20.112C9.05203 14.808 12.988 10.32 17.14 10.32C12.988 10.32 9.05203 5.808 9.05203 0.503999C9.05203 5.808 5.11603 10.344 0.964031 10.344ZM19.4461 12.048V8.448H27.4141V12.048H19.4461Z" fill="#00D4FF"/>
<path d="M42.1655 12.768H46.9655V13.968C46.9655 18.264 43.4135 20.928 38.2055 20.928C32.9975 20.928 29.4455 18.024 29.4455 13.488V7.464C29.4455 2.928 32.9975 0.0239997 38.2055 0.0239997C43.4135 0.0239997 46.9655 2.688 46.9655 6.984V7.944H42.1655V7.224C42.1655 4.992 40.7015 3.864 38.2055 3.864C35.7095 3.864 34.2455 5.232 34.2455 7.704V13.248C34.2455 15.72 35.7095 17.088 38.2055 17.088C40.7015 17.088 42.1655 15.96 42.1655 13.728V12.768Z" fill="#01EC7F"/>
<path d="M47.8148 20.616V17.496L57.2948 4.152H48.0548V0.311999H62.9588V3.432L53.4308 17.376C56.6228 17.376 60.6068 17.064 63.0788 15.816V20.616H47.8148Z" fill="#AE55EC"/>
</svg>
