<svg width="209" height="70" viewBox="0 0 209 70" fill="none" xmlns="http://www.w3.org/2000/svg">
<path d="M0.273438 68.72V1.04H29.3934C46.7534 1.04 57.3134 14.48 57.3134 34.88C57.3134 55.28 46.7534 68.72 29.3934 68.72H0.273438ZM1.71344 34.48C15.5534 34.48 28.6734 49.36 28.6734 67.04C28.6734 49.36 41.7934 34.4 55.6334 34.4C41.7934 34.4 28.6734 19.36 28.6734 1.68C28.6734 19.36 15.5534 34.48 1.71344 34.48ZM63.3203 40.16V28.16H89.8803V40.16H63.3203Z" fill="#00D4FF"/>
<path d="M139.052 42.56H155.052V46.56C155.052 60.88 143.212 69.76 125.852 69.76C108.492 69.76 96.6516 60.08 96.6516 44.96V24.88C96.6516 9.76 108.492 0.079999 125.852 0.079999C143.212 0.079999 155.052 8.96 155.052 23.28V26.48H139.052V24.08C139.052 16.64 134.172 12.88 125.852 12.88C117.532 12.88 112.652 17.44 112.652 25.68V44.16C112.652 52.4 117.532 56.96 125.852 56.96C134.172 56.96 139.052 53.2 139.052 45.76V42.56Z" fill="#01EC7F"/>
<path d="M157.883 68.72V58.32L189.483 13.84H158.683V1.04H208.363V11.44L176.603 57.92C187.243 57.92 200.523 56.88 208.763 52.72V68.72H157.883Z" fill="#AE55EC"/>
</svg>
