<svg width="24" height="24" viewBox="0 0 24 24" fill="none" xmlns="http://www.w3.org/2000/svg">
<path d="M4.5 18.9999V10.1536C4.5 9.86745 4.564 9.59637 4.692 9.34037C4.82017 9.0842 4.99717 8.87328 5.223 8.70762L10.9155 4.41912C11.2313 4.17812 11.5923 4.05762 11.9985 4.05762C12.4047 4.05762 12.7667 4.17812 13.0845 4.41912L18.777 8.70762C19.0028 8.87328 19.1798 9.0842 19.308 9.34037C19.436 9.59637 19.5 9.86745 19.5 10.1536V18.9999C19.5 19.4089 19.3523 19.7611 19.0568 20.0566C18.7613 20.3521 18.409 20.4999 18 20.4999H14.8077C14.5516 20.4999 14.3369 20.4132 14.1637 20.2399C13.9904 20.0667 13.9038 19.852 13.9038 19.5959V14.7114C13.9038 14.4554 13.8172 14.2407 13.644 14.0674C13.4708 13.8942 13.2562 13.8076 13 13.8076H11C10.7438 13.8076 10.5292 13.8942 10.356 14.0674C10.1828 14.2407 10.0963 14.4554 10.0963 14.7114V19.5959C10.0963 19.852 10.0096 20.0667 9.83625 20.2399C9.66308 20.4132 9.44842 20.4999 9.19225 20.4999H6C5.591 20.4999 5.23875 20.3521 4.94325 20.0566C4.64775 19.7611 4.5 19.4089 4.5 18.9999Z" fill="#707071"/>
</svg>
