<svg width="24" height="24" viewBox="0 0 24 24" fill="none" xmlns="http://www.w3.org/2000/svg">
<path d="M12 11.4C10.8416 11.4 9.852 10.9896 9.0312 10.1688C8.2104 9.3482 7.8 8.3586 7.8 7.2C7.8 6.0416 8.2104 5.052 9.0312 4.2312C9.852 3.4104 10.8416 3 12 3C13.1584 3 14.148 3.4104 14.9688 4.2312C15.7896 5.052 16.2 6.0416 16.2 7.2C16.2 8.3586 15.7896 9.3482 14.9688 10.1688C14.148 10.9896 13.1584 11.4 12 11.4ZM3 18.7155V17.8707C3 17.2831 3.1596 16.7389 3.4788 16.2381C3.798 15.7373 4.2246 15.3523 4.7586 15.0831C5.9446 14.5017 7.1411 14.0656 8.3481 13.7748C9.5551 13.484 10.7724 13.3386 12 13.3386C13.2276 13.3386 14.4449 13.484 15.6519 13.7748C16.8589 14.0656 18.0554 14.5017 19.2414 15.0831C19.7754 15.3523 20.202 15.7373 20.5212 16.2381C20.8404 16.7389 21 17.2831 21 17.8707V18.7155C21 19.2215 20.8227 19.6519 20.4681 20.0067C20.1135 20.3613 19.6831 20.5386 19.1769 20.5386H4.8231C4.3169 20.5386 3.8865 20.3613 3.5319 20.0067C3.1773 19.6519 3 19.2215 3 18.7155Z" fill="#707071"/>
</svg>
