<svg width="25" height="24" viewBox="0 0 25 24" fill="none" xmlns="http://www.w3.org/2000/svg">
<path d="M5.75 18.8845C5.5375 18.8845 5.35942 18.8127 5.21575 18.669C5.07192 18.5252 5 18.3469 5 18.1343C5 17.9218 5.07192 17.7437 5.21575 17.6C5.35942 17.4565 5.5375 17.3848 5.75 17.3848H6.80775V9.923C6.80775 8.57817 7.22283 7.38908 8.053 6.35575C8.883 5.32242 9.94867 4.6615 11.25 4.373V3.75C11.25 3.40283 11.3714 3.10767 11.6143 2.8645C11.8571 2.6215 12.1519 2.5 12.4988 2.5C12.8458 2.5 13.141 2.6215 13.3845 2.8645C13.6282 3.10767 13.75 3.40283 13.75 3.75V4.373C15.0513 4.6615 16.117 5.32242 16.947 6.35575C17.7772 7.38908 18.1923 8.57817 18.1923 9.923V17.3848H19.25C19.4625 17.3848 19.6406 17.4566 19.7843 17.6003C19.9281 17.7441 20 17.9223 20 18.135C20 18.3475 19.9281 18.5256 19.7843 18.6693C19.6406 18.8128 19.4625 18.8845 19.25 18.8845H5.75ZM12.4983 21.6923C12.0008 21.6923 11.5754 21.5153 11.2223 21.1613C10.8689 20.8073 10.6923 20.3817 10.6923 19.8845H14.3077C14.3077 20.3833 14.1306 20.8093 13.7762 21.1625C13.4219 21.5157 12.9959 21.6923 12.4983 21.6923Z" fill="#707071"/>
</svg>
